<?xml version="1.0" encoding="UTF-8"?>
<svg xmlns="http://www.w3.org/2000/svg" width="34" height="32" viewBox="0 0 34 32" fill="none">
  <g clip-path="url(#clip0_295_74)">
    <path d="M11.7051 9.19829C11.7578 9.28608 11.7344 9.40118 11.6505 9.46165C11.5666 9.52213 11.4515 9.50848 11.3833 9.43239L9.03247 6.748C8.93687 6.63876 8.80422 6.56853 8.6618 6.55097C6.37344 6.28175 4.69765 6.66217 2.82872 7.29034C2.70582 7.33131 2.59267 7.4074 2.52634 7.5186C2.39173 7.73904 2.43465 8.00826 2.60632 8.17604L7.1928 12.6455C7.32936 12.7781 7.5264 12.8269 7.70783 12.7703C9.37777 12.2572 11.9432 11.9666 13.615 12.2065C13.7028 12.2182 13.7887 12.1812 13.8374 12.109C13.8862 12.0368 13.8901 11.9412 13.8472 11.8651C13.5858 11.4067 13.3361 11.0653 13.3361 9.94352C13.3361 7.69027 14.9806 6.86896 15.8195 6.64461C15.9171 6.61925 15.999 6.54902 16.04 6.45733C16.0809 6.36564 16.079 6.25834 16.0341 6.1686L13.139 0.294551C13.0668 0.148237 12.9303 0.0428902 12.7684 0.0097255C12.6084 -0.0214883 12.4406 0.0233815 12.3177 0.130679C10.521 1.70698 9.65869 3.572 9.75624 5.79208C9.76014 5.88768 9.7894 5.98327 9.84012 6.0652L11.7071 9.19829H11.7051Z" fill="#F58220"></path>
    <path d="M21.7111 9.19829C21.6585 9.28608 21.6819 9.40118 21.7658 9.46165C21.8496 9.52213 21.9647 9.50848 22.033 9.43239L24.3838 6.748C24.4794 6.63876 24.6121 6.56853 24.7545 6.55097C27.0428 6.28175 28.7186 6.66217 30.5876 7.29034C30.7105 7.33131 30.8236 7.4074 30.8899 7.5186C31.0245 7.73904 30.9816 8.00826 30.81 8.17604L26.2254 12.6455C26.0889 12.7781 25.8918 12.8269 25.7084 12.7703C24.0385 12.2572 21.4731 11.9666 19.8012 12.2065C19.7134 12.2182 19.6276 12.1812 19.5788 12.109C19.5301 12.0368 19.5262 11.9412 19.5691 11.8651C19.8305 11.4067 20.0802 11.0653 20.0802 9.94352C20.0802 7.69027 18.4356 6.86896 17.5968 6.64461C17.4992 6.61925 17.4173 6.54902 17.3763 6.45733C17.3353 6.36564 17.3373 6.25834 17.3822 6.1686L20.2772 0.294551C20.3494 0.148237 20.486 0.0428902 20.6479 0.0097255C20.8079 -0.0214883 20.9757 0.0233815 21.0986 0.130679C22.8953 1.70698 23.7576 3.572 23.66 5.79208C23.6561 5.88768 23.6269 5.98327 23.5762 6.0652L21.7092 9.19829H21.7111Z" fill="#F58220"></path>
    <path d="M17.0506 21.9433C16.8535 21.7736 16.5589 21.7736 16.3639 21.9433C15.1056 23.0319 13.0903 24.1478 11.5725 24.6667C11.3911 24.7292 11.2604 24.8833 11.2292 25.0725L10.1465 31.3816C10.1152 31.563 10.1816 31.7464 10.3181 31.8674C10.4547 31.9883 10.6478 32.0293 10.8234 31.9747C12.7157 31.3836 14.2998 30.7047 16.001 29.1362C16.1063 29.0386 16.1727 28.9021 16.1863 28.7596L16.5102 25.2052C16.5199 25.1018 16.6058 25.0237 16.7092 25.0237C16.8126 25.0237 16.8984 25.1018 16.9082 25.2052L17.232 28.7596C17.2457 28.904 17.31 29.0386 17.4173 29.1362C19.1165 30.7047 20.7026 31.3816 22.5949 31.9747C22.7705 32.0293 22.9617 31.9883 23.1002 31.8674C23.2387 31.7464 23.3031 31.563 23.2719 31.3816L22.1891 25.0725C22.156 24.8833 22.0253 24.7292 21.8458 24.6667C20.33 24.1478 18.3128 23.0319 17.0545 21.9433H17.0506Z" fill="#FFC543"></path>
    <path d="M11.5627 18.4552C11.6642 18.2152 11.5725 17.9362 11.3501 17.8016C9.92597 16.9413 8.24043 15.3689 7.27865 14.0872C7.16355 13.935 6.97627 13.857 6.78703 13.8843L0.475992 14.8012C0.349186 14.8207 0.22433 14.8734 0.138492 14.969C-0.0331835 15.1602 -0.0429378 15.4333 0.0975243 15.6303C1.24463 17.2476 2.37808 18.5449 4.39527 19.6764C4.52208 19.7466 4.67035 19.7681 4.81081 19.7349L8.29115 18.9448C8.39064 18.9214 8.49209 18.9799 8.52525 19.0775C8.55842 19.175 8.50964 19.2804 8.41405 19.3213L5.1327 20.7279C5.00004 20.7845 4.89079 20.8898 4.83032 21.0205C3.86854 23.1119 3.71052 24.8228 3.73003 26.7951C3.73003 26.9258 3.76905 27.0565 3.85489 27.156C4.02266 27.3511 4.29188 27.394 4.50452 27.2809L10.1718 24.3019C10.3415 24.2122 10.4488 24.0405 10.4508 23.8493C10.4761 22.2476 10.9131 19.9846 11.5608 18.4513L11.5627 18.4552Z" fill="#FFC543"></path>
    <path d="M21.8536 18.4552C21.7521 18.2152 21.8438 17.9362 22.0662 17.8016C23.4903 16.9413 25.1759 15.3689 26.1376 14.0872C26.2527 13.935 26.44 13.857 26.6293 13.8843L32.9403 14.8012C33.0671 14.8207 33.192 14.8734 33.2778 14.969C33.4495 15.1602 33.4592 15.4333 33.3188 15.6303C32.1717 17.2476 31.0382 18.5449 29.021 19.6764C28.8942 19.7466 28.746 19.7681 28.6055 19.7349L25.1251 18.9448C25.0257 18.9214 24.9242 18.9799 24.891 19.0775C24.8579 19.175 24.9067 19.2804 25.0022 19.3213L28.2836 20.7279C28.4163 20.7845 28.5255 20.8898 28.586 21.0205C29.5478 23.1138 29.7058 24.8247 29.6863 26.797C29.6863 26.9258 29.6472 27.0565 29.5634 27.156C29.3956 27.3511 29.1264 27.394 28.9137 27.2828L23.2465 24.3038C23.0767 24.2141 22.9694 24.0424 22.9675 23.8512C22.9421 22.2496 22.5051 19.9866 21.8575 18.4532L21.8536 18.4552Z" fill="#FFC543"></path>
  </g>
  <defs>
    <clipPath id="clip0_295_74">
      <rect width="33.4144" height="32" fill="white"></rect>
    </clipPath>
  </defs>
</svg>
