<?xml version="1.0" encoding="UTF-8"?>
<svg xmlns="http://www.w3.org/2000/svg" width="273" height="130" viewBox="0 0 273 130" fill="none">
  <g clip-path="url(#clip0_55_131)">
    <path d="M54.8999 49.0246C55.0372 49.2535 54.9914 49.5282 54.8083 49.6655C54.6252 49.8028 54.3048 49.757 54.1675 49.5739L48.6287 43.257C48.3999 42.9824 48.0795 42.8451 47.759 42.7993C42.4034 42.1584 38.4668 43.0739 34.0724 44.5387C33.7978 44.6303 33.5689 44.8134 33.3858 45.088C33.0654 45.5915 33.1569 46.2324 33.5689 46.6444L44.3259 57.1267C44.6464 57.4472 45.1041 57.5387 45.5161 57.4014C49.4527 56.2113 55.4492 55.5246 59.3858 56.0739C59.6604 56.1197 59.9351 55.8908 59.9809 55.6162C59.9809 55.4789 59.9809 55.3873 59.9351 55.2958C59.34 54.2429 58.7449 53.419 58.7449 50.8098C58.7449 45.5 62.59 43.5774 64.5583 43.0739C64.7872 43.0282 64.9703 42.8451 65.0618 42.6162C65.1534 42.3873 65.1534 42.1584 65.0618 41.9296L58.2414 28.1514C58.0583 27.7852 57.7379 27.5563 57.3717 27.4648C57.0055 27.3732 56.5935 27.5105 56.3189 27.7394C52.1076 31.4472 50.0935 35.7958 50.3224 41.0141C50.3224 41.2429 50.414 41.4718 50.5055 41.6549L54.8999 49.0246Z" fill="#F58220"></path>
    <path d="M78.3822 49.0246C78.2449 49.2535 78.2907 49.5282 78.4738 49.6655C78.6569 49.8028 78.9773 49.757 79.1146 49.5739L84.6076 43.257C84.8365 42.9824 85.1569 42.8451 85.4773 42.7993C90.8329 42.1584 94.7696 43.0739 99.1639 44.5387C99.4386 44.6303 99.7132 44.8134 99.8963 45.088C100.217 45.5915 100.125 46.2324 99.7132 46.6444L88.9562 57.1267C88.6358 57.4472 88.178 57.5387 87.766 57.4014C83.8294 56.2113 77.833 55.5246 73.8963 56.0739C73.7132 56.1197 73.4844 56.0282 73.3928 55.8451C73.3013 55.662 73.3013 55.4331 73.3928 55.2958C73.9879 54.2429 74.583 53.419 74.583 50.8098C74.583 45.5 70.7379 43.5774 68.7696 43.0739C68.5407 43.0282 68.3576 42.8451 68.266 42.6162C68.1745 42.3873 68.1745 42.1584 68.266 41.9296L75.0865 28.1514C75.2696 27.7852 75.59 27.5563 75.9562 27.4648C76.3224 27.3732 76.7344 27.5105 77.009 27.7394C81.2203 31.4472 83.2344 35.7958 83.0055 41.0141C83.0055 41.2429 82.9139 41.4718 82.8224 41.6549L78.3822 49.0246Z" fill="#F58220"></path>
    <path d="M67.4421 78.9613C66.9843 78.5493 66.2977 78.5493 65.84 78.9613C62.4984 81.7077 58.6991 83.9049 54.5794 85.3697C54.1674 85.507 53.847 85.8732 53.7555 86.331L51.1921 101.116C51.1005 101.803 51.5583 102.444 52.1991 102.535C52.3822 102.581 52.5653 102.535 52.7484 102.489C57.1886 101.116 60.8963 99.5141 64.8787 95.8521C65.1076 95.6232 65.2907 95.3028 65.2907 94.9824L66.0688 86.6514C66.0688 86.4225 66.2977 86.2394 66.5266 86.2394C66.7555 86.2394 66.9843 86.4225 66.9843 86.6514L67.7625 94.9824C67.8083 95.3028 67.9456 95.6232 68.2203 95.8521C72.2026 99.5141 75.9104 101.116 80.3505 102.489C80.9914 102.718 81.678 102.352 81.9069 101.711C81.9526 101.528 81.9984 101.345 81.9526 101.116L79.3893 86.2852C79.2977 85.8275 79.0231 85.4613 78.5653 85.3239C74.6287 83.8591 70.8294 81.7077 67.4421 78.9613Z" fill="#FFC543"></path>
    <path d="M54.5794 70.7676C54.8083 70.2183 54.6252 69.5317 54.0759 69.2113C50.4139 66.8768 47.2097 63.9472 44.509 60.5141C44.2343 60.1479 43.7766 59.9648 43.3646 60.0563L28.5794 62.2078C28.259 62.2535 27.9843 62.3909 27.7555 62.6197C27.3435 63.0317 27.3435 63.7183 27.6639 64.1761C30.3646 67.9754 33.0195 70.9965 37.7343 73.6514C38.009 73.8345 38.3752 73.8803 38.6956 73.7887L46.8435 71.912C47.0724 71.8204 47.347 71.9578 47.4386 72.2324C47.5301 72.4613 47.3928 72.7359 47.1181 72.8275L39.428 76.1233C39.1076 76.2606 38.8787 76.4894 38.6956 76.8099C36.4526 81.7078 36.0864 85.7359 36.1322 90.3592C36.1322 90.6796 36.2238 90.9542 36.4069 91.2289C36.7731 91.6866 37.4139 91.7782 37.9174 91.5035L51.2379 84.5C51.6498 84.2711 51.8787 83.9049 51.8787 83.4472C52.1076 79.0986 52.9773 74.7958 54.5794 70.7676Z" fill="#FFC543"></path>
    <path d="M78.7027 70.7676C78.4738 70.2183 78.6569 69.5317 79.2062 69.2113C82.8682 66.8768 86.0724 63.9472 88.7731 60.5141C89.0478 60.1479 89.5055 59.9648 89.9175 60.0563L104.748 62.2078C105.069 62.2535 105.344 62.3909 105.527 62.6197C105.939 63.0317 105.939 63.6725 105.618 64.1761C102.917 67.9754 100.263 70.9965 95.5478 73.6514C95.2731 73.8345 94.9069 73.8803 94.5865 73.7887L86.4386 71.912C86.2097 71.8204 85.9351 71.9578 85.8435 72.2324C85.752 72.5071 85.8893 72.7359 86.164 72.8275L93.8541 76.0775C94.1745 76.2148 94.4034 76.4437 94.5407 76.7641C96.7837 81.662 97.1499 85.6902 97.1041 90.3134C97.1041 90.6338 97.0126 90.9085 96.8295 91.1373C96.4633 91.5951 95.8224 91.6866 95.3189 91.412L81.9985 84.5C81.5865 84.2711 81.3576 83.9049 81.3576 83.4472C81.1745 79.0986 80.3048 74.7958 78.7027 70.7676Z" fill="#FFC543"></path>
    <mask id="mask0_55_131" style="mask-type:luminance" maskUnits="userSpaceOnUse" x="92" y="6" width="181" height="118">
      <path d="M272.359 6.95776H92.1443V123.042H272.359V6.95776Z" fill="white"></path>
    </mask>
    <g mask="url(#mask0_55_131)">
</g>
    <g clip-path="url(#clip1_55_131)">
      <path d="M127.707 50.0797C126.379 50.1255 125.097 49.8051 123.953 49.21C122.855 48.615 121.985 47.6995 121.436 46.5551C120.795 45.1819 120.52 43.7171 120.566 42.2523C120.52 40.7417 120.84 39.2769 121.436 37.9037C121.985 36.7593 122.855 35.7981 123.999 35.1572C125.235 34.4706 126.562 34.1502 127.981 34.1959C128.851 34.1959 129.721 34.2875 130.59 34.4706C131.552 34.6537 132.467 34.9741 133.337 35.3403L133.154 39.1396H131.552L131.094 36.5304L131.506 36.9424C130.957 36.7593 130.407 36.622 129.812 36.4847C129.263 36.3931 128.759 36.3016 128.21 36.3016C127.34 36.2558 126.425 36.5304 125.693 36.9882C124.96 37.4917 124.411 38.1783 124.09 39.0023C123.678 40.0093 123.495 41.1537 123.495 42.2523C123.495 44.0833 123.862 45.5023 124.686 46.5093C125.509 47.5164 126.745 48.1114 128.073 48.0199C128.576 48.0199 129.034 47.9741 129.538 47.8368C130.087 47.6995 130.59 47.5621 131.094 47.379L130.774 47.9283V43.534L131.231 43.9917L129.08 43.6255V42.2523L134.939 42.1607V43.5797L132.971 44.0375L133.245 43.5797V48.8438C132.33 49.21 131.323 49.5305 130.362 49.7593C129.492 49.9882 128.622 50.0797 127.707 50.0797Z" fill="#141E64"></path>
      <path d="M139.517 48.2945L139.288 48.0657L141.027 48.5234V49.8966H135.305V48.5234L137.045 48.0657L136.862 48.2945V39.8262L137.045 40.0093L135.305 39.5516V38.1783L139.517 38.041V48.2945ZM138.097 36.1642C137.686 36.1642 137.274 36.0269 136.953 35.7523C136.633 35.4319 136.495 35.0199 136.495 34.6079C136.45 34.1502 136.633 33.6924 136.953 33.372C137.274 33.0973 137.686 32.96 138.097 32.96C138.509 32.96 138.921 33.0973 139.242 33.372C139.837 34.0586 139.837 35.1114 139.242 35.7981C138.921 36.0269 138.509 36.1642 138.097 36.1642Z" fill="#141E64"></path>
      <path d="M151.555 48.4776L151.189 47.9283L153.112 48.4319V49.8051L149.495 49.9882L149.129 47.8826L149.358 47.9283C148.809 48.615 148.122 49.1185 147.39 49.5305C146.749 49.8509 145.971 50.034 145.238 50.0798C144.414 50.1255 143.59 49.8051 142.995 49.21C142.355 48.5234 142.034 47.6079 142.08 46.6467C142.034 45.96 142.217 45.2276 142.629 44.6783C143.041 44.1748 143.59 43.8086 144.186 43.6255C144.964 43.3967 145.788 43.3051 146.566 43.3051H149.129L148.946 43.534V41.8403C148.992 41.291 148.809 40.696 148.397 40.284C147.939 39.9636 147.39 39.7805 146.84 39.8262C146.474 39.8262 146.108 39.872 145.788 39.9178C145.376 40.0093 144.964 40.1009 144.552 40.2382L144.872 39.9178L144.598 41.7945H142.904L142.721 38.7276C143.59 38.453 144.46 38.2699 145.33 38.0868C146.062 37.9495 146.795 37.9037 147.527 37.8579C148.58 37.8122 149.679 38.0868 150.548 38.6819C151.235 39.2312 151.601 40.1467 151.601 41.3368V48.4776H151.555ZM144.735 46.4636C144.689 46.9213 144.826 47.3791 145.147 47.7452C145.421 48.0199 145.833 48.1572 146.2 48.1572C146.703 48.1572 147.161 48.0199 147.573 47.7452C148.122 47.4706 148.58 47.1044 149.038 46.6924L148.9 47.196V44.5868L149.083 44.8157H147.024C146.383 44.7699 145.788 44.9072 145.238 45.1819C144.872 45.5481 144.689 46.0058 144.735 46.4636ZM146.245 36.6678V34.8826C146.657 34.8826 147.069 34.791 147.436 34.6079C147.71 34.4706 147.848 34.196 147.848 33.9213C147.893 33.6924 147.756 33.4636 147.527 33.3262C147.298 33.1889 147.069 33.1431 146.795 33.1431C146.566 33.1431 146.337 33.1431 146.154 33.1889C145.925 33.2347 145.696 33.2805 145.467 33.372L145.147 32.1361C145.467 31.9988 145.833 31.9072 146.2 31.8614C146.566 31.8157 146.886 31.7699 147.252 31.7699C147.893 31.7699 148.534 31.9072 149.083 32.2276C149.587 32.5481 149.862 33.1431 149.862 33.7382C149.862 34.196 149.724 34.6537 149.404 34.9741C148.992 35.3403 148.488 35.615 147.939 35.6607V36.622L146.245 36.6678Z" fill="#141E64"></path>
      <path d="M154.668 49.8509V48.4776L156.545 47.9741L156.224 48.3861V39.6889L156.545 40.1466L154.668 39.6431V38.2699L158.284 38.0868L158.65 40.2382L158.284 40.1009C158.925 39.4143 159.703 38.865 160.573 38.4988C161.305 38.1783 162.038 37.9952 162.816 37.9952C163.731 37.9495 164.601 38.3157 165.288 38.9107C165.929 39.5058 166.249 40.4671 166.249 41.703V48.4319L165.974 48.0199L167.805 48.5234V49.8966H162.129V48.5234L163.869 48.0657L163.548 48.4776V42.2065C163.594 41.6114 163.411 40.9706 163.045 40.5128C162.679 40.1466 162.175 39.9636 161.671 39.9636C161.168 39.9636 160.664 40.1009 160.207 40.3297C159.612 40.6044 159.108 40.9706 158.65 41.4283L158.833 41.0164V48.4776L158.559 48.0657L160.252 48.5234V49.8966L154.668 49.8509Z" fill="#141E64"></path>
      <path d="M173.619 55.1607C171.833 55.1607 170.506 54.9319 169.636 54.4283C168.812 54.0164 168.309 53.1924 168.309 52.2769C168.309 51.5903 168.538 50.9495 169.041 50.4459C169.636 49.8966 170.369 49.4389 171.147 49.1643V49.7135C170.689 49.7135 170.277 49.5762 169.865 49.3016C169.545 49.1185 169.407 48.7523 169.407 48.3861C169.407 48.2488 169.407 48.1114 169.453 48.0199C169.499 47.8368 169.59 47.6537 169.682 47.4706C169.819 47.1959 169.957 46.8755 170.14 46.6009C170.323 46.2347 170.598 45.8227 170.872 45.2734V45.7312C170.231 45.4107 169.682 44.9072 169.316 44.2664C168.95 43.6255 168.721 42.8931 168.721 42.1607C168.675 40.9706 169.178 39.7805 170.048 39.0023C170.964 38.2241 172.2 37.8579 173.756 37.8579C174.763 37.8121 175.724 38.041 176.64 38.4072L175.999 38.3157L179.615 38.1783V39.6889L177.784 40.0551L177.967 39.7347C178.242 40.0093 178.425 40.3755 178.562 40.7417C178.7 41.1537 178.791 41.6114 178.745 42.0234C178.791 43.2135 178.288 44.4037 177.372 45.1819C176.319 46.0058 174.992 46.4178 173.664 46.3262C172.886 46.3262 172.154 46.1889 171.421 45.96L171.925 45.6854L171.467 48.203L171.009 47.9741H175.404C176.869 47.9741 177.967 48.2488 178.7 48.7981C179.524 49.4389 179.981 50.3544 179.89 51.3157C179.936 52.46 179.34 53.5586 178.333 54.1537C177.281 54.8403 175.724 55.1607 173.619 55.1607ZM173.893 53.2382C174.809 53.284 175.724 53.1466 176.594 52.8262C177.098 52.5974 177.418 52.0938 177.418 51.5445C177.464 51.0868 177.235 50.629 176.823 50.4002C176.319 50.1255 175.724 49.9882 175.083 50.034H171.33L171.971 49.8966C171.055 50.4917 170.598 51.1326 170.598 51.8192C170.598 52.3227 170.918 52.7347 171.376 52.9178C172.2 53.1466 173.024 53.284 173.893 53.2382ZM173.71 44.541C174.397 44.5868 175.038 44.3579 175.541 43.9002C175.999 43.3966 176.228 42.7558 176.182 42.0692C176.228 41.4283 175.999 40.7417 175.587 40.284C174.534 39.5058 173.069 39.5058 172.017 40.3297C171.559 40.8333 171.33 41.4741 171.421 42.1607C171.376 42.8016 171.605 43.4424 172.017 43.9459C172.474 44.3579 173.069 44.5868 173.71 44.541Z" fill="#141E64"></path>
      <path d="M189.64 50.0797C188.862 50.0797 188.083 49.8509 187.397 49.3931C186.71 48.8896 186.161 48.203 185.84 47.4248C185.428 46.4178 185.245 45.3192 185.291 44.2206C185.291 42.0692 185.84 40.5128 186.939 39.46C188.038 38.4072 189.548 37.9037 191.471 37.9037C191.837 37.9037 192.157 37.9037 192.524 37.9495C192.89 37.9952 193.256 38.041 193.622 38.1326L193.119 38.453V34.5621L193.348 34.8368L191.471 34.3333V32.96L195.774 32.7769V48.3403L195.407 47.9283L197.284 48.4318V49.8051L193.714 49.9882L193.348 48.0656L193.622 48.1572C193.073 48.7523 192.386 49.21 191.7 49.5762C191.059 49.9424 190.372 50.0797 189.64 50.0797ZM190.647 48.1572C191.105 48.1572 191.562 48.0199 191.974 47.791C192.478 47.5164 192.981 47.1959 193.393 46.784L193.119 47.6079V39.5516L193.439 40.1466C192.752 39.9178 192.066 39.8262 191.379 39.7804C190.418 39.6889 189.457 40.1466 188.862 40.879C188.267 41.7945 187.992 42.8931 188.038 43.9917C188.038 44.7241 188.129 45.5023 188.358 46.1889C188.541 46.7382 188.862 47.2417 189.274 47.6079C189.686 47.9741 190.143 48.1572 190.647 48.1572Z" fill="#141E64"></path>
      <path d="M207.767 48.4776L207.4 47.9283L209.369 48.4318V49.8051L205.752 49.9882L205.386 47.8826L205.615 47.9283C205.066 48.5692 204.379 49.1185 203.601 49.5304C202.96 49.8509 202.182 50.034 201.45 50.0797C200.626 50.0797 199.802 49.8051 199.207 49.21C198.566 48.5234 198.245 47.6079 198.291 46.6466C198.245 45.96 198.428 45.2276 198.84 44.6783C199.252 44.1748 199.802 43.8086 200.397 43.6255C201.175 43.3966 201.999 43.3051 202.777 43.3051H205.34L205.157 43.5797V41.8861C205.203 41.3368 205.02 40.7417 204.608 40.3297C204.15 40.0093 203.601 39.8262 203.052 39.872C202.686 39.872 202.319 39.9178 201.999 39.9635C201.587 40.0551 201.175 40.1466 200.763 40.284L201.083 39.9635L200.809 41.8403H199.161L198.978 38.7734C199.848 38.4987 200.671 38.3156 201.587 38.1326C202.319 37.9952 203.052 37.9495 203.784 37.9037C204.837 37.8579 205.936 38.1326 206.805 38.7276C207.492 39.2769 207.858 40.1924 207.858 41.3826L207.767 48.4776ZM200.946 46.4635C200.9 46.9213 201.038 47.379 201.358 47.7452C201.633 48.0199 202.045 48.1572 202.457 48.1572C202.96 48.1572 203.418 48.0199 203.83 47.7452C204.333 47.4706 204.837 47.1044 205.295 46.6924L205.157 47.1959V44.5868L205.34 44.8157H203.235C202.594 44.7699 201.999 44.9072 201.45 45.1818C201.083 45.548 200.9 46.0058 200.946 46.4635ZM203.509 54.3826C203.098 54.3826 202.686 54.2452 202.365 53.9706C201.77 53.284 201.77 52.2769 202.365 51.5903C203.052 51.041 203.967 51.041 204.654 51.5903C205.249 52.2769 205.249 53.3297 204.654 54.0164C204.333 54.2452 203.921 54.3826 203.509 54.3826Z" fill="#141E64"></path>
      <path d="M209.552 55.0234L209.781 53.1467C210.009 53.1924 210.193 53.1924 210.376 53.1924C210.559 53.1924 210.742 53.1924 210.879 53.1924C211.474 53.2382 212.024 53.0551 212.527 52.7805C212.985 52.46 213.351 52.0023 213.626 51.4988C213.992 50.7664 214.267 50.034 214.541 49.3016L214.45 50.2171L210.284 39.6889L210.559 39.9178L209.231 39.6431V38.2699L214.495 38.0868V39.46L212.802 39.872L212.939 39.6431L215.869 48.2488L215.228 48.0657L217.929 39.6431L218.066 39.9178L216.418 39.6431V38.2699L221.407 38.0868V39.46L219.988 39.872L220.355 39.6431L216.647 49.8509C216.372 50.5833 216.098 51.3157 215.731 52.0481C215.411 52.6431 215.045 53.1924 214.587 53.7417C214.175 54.1995 213.671 54.5657 213.122 54.7945C212.481 55.0692 211.795 55.2065 211.108 55.1607C210.605 55.1607 210.055 55.115 209.552 55.0234Z" fill="#141E64"></path>
      <path d="M232.531 38.2699L237.383 38.0868V39.46L236.055 39.9636L236.421 39.5516L232.714 49.8967H229.601L226.305 39.5974L226.717 39.9178L225.344 39.5974V38.2241L230.517 38.041V39.4143L228.777 39.872L229.006 39.5058L231.478 48.203H231.249L233.995 39.6431L234.133 39.872L232.531 39.5974V38.2699Z" fill="#141E64"></path>
      <path d="M239.351 31.6783L243.7 35.0657L242.693 36.4389L237.932 33.5551L239.351 31.6783ZM242.418 48.2945L242.189 48.0657L243.928 48.5234V49.8967H238.207V48.5234L239.946 48.0657L239.763 48.2945V39.8262L239.946 40.0093L238.207 39.5516V38.1783L242.418 38.041V48.2945Z" fill="#141E64"></path>
      <path d="M134.893 88.8966V87.8896H140.844V88.8966H138.464V95.5797H137.274V88.8966H134.893Z" fill="#141E64"></path>
      <path d="M143.362 95.7171C142.858 95.7171 142.355 95.6255 141.897 95.3509C141.485 95.122 141.164 94.7558 140.936 94.3438C140.478 93.3368 140.478 92.2382 140.936 91.2311C141.348 90.3157 142.263 89.7664 143.27 89.8121C143.59 89.8121 143.911 89.8579 144.231 89.9952C144.552 90.0868 144.826 90.2699 145.055 90.4988C145.33 90.7734 145.513 91.048 145.605 91.4142C145.742 91.8262 145.833 92.284 145.788 92.7417V93.1537H141.21V92.3297H144.689C144.689 92.0551 144.643 91.7804 144.506 91.5516C144.369 91.3227 144.231 91.1396 144.002 91.0023C143.774 90.8649 143.499 90.7734 143.224 90.8192C142.95 90.8192 142.629 90.9107 142.4 91.048C142.171 91.1854 141.988 91.4142 141.851 91.6431C141.714 91.872 141.668 92.1466 141.668 92.4671V93.1079C141.668 93.4283 141.714 93.7945 141.851 94.0692C141.988 94.3438 142.171 94.5269 142.4 94.6642C142.675 94.8016 142.95 94.8931 143.27 94.8931C143.453 94.8931 143.682 94.8473 143.865 94.8016C144.048 94.7558 144.186 94.6642 144.323 94.5269C144.46 94.3896 144.552 94.2523 144.598 94.0692L145.65 94.2523C145.559 94.5727 145.421 94.8473 145.193 95.0762C144.964 95.3051 144.689 95.4882 144.369 95.6255C144.14 95.6255 143.728 95.7171 143.362 95.7171Z" fill="#141E64"></path>
      <path d="M148.534 95.7171C148.214 95.7171 147.847 95.6713 147.527 95.534C147.252 95.3966 147.024 95.2135 146.84 94.9389C146.657 94.6642 146.566 94.3438 146.566 93.9776C146.566 93.703 146.612 93.4283 146.749 93.1537C146.886 92.9706 147.024 92.7875 147.252 92.6502C147.481 92.5128 147.71 92.4213 147.985 92.3755C148.259 92.3297 148.534 92.284 148.809 92.2382L149.633 92.1466C149.77 92.1466 149.953 92.1009 150.09 92.0093C150.182 91.9635 150.228 91.8262 150.228 91.7347V91.6889C150.228 91.4142 150.136 91.1396 149.953 90.9107C149.724 90.7276 149.45 90.6361 149.129 90.6361C148.809 90.6361 148.488 90.7276 148.259 90.9107C148.076 91.048 147.893 91.2311 147.802 91.46L146.749 91.2311C146.84 90.9107 147.069 90.6361 147.298 90.3614C147.527 90.1326 147.847 89.9952 148.122 89.9037C148.443 89.8121 148.763 89.7664 149.129 89.7664C149.358 89.7664 149.633 89.8121 149.862 89.8579C150.136 89.9037 150.365 89.9952 150.594 90.1326C150.823 90.2699 151.052 90.453 151.189 90.7276C151.326 91.048 151.418 91.4142 151.418 91.7347V95.534H150.319V94.7558H150.274C150.182 94.8931 150.09 95.0762 149.953 95.1678C149.77 95.3051 149.587 95.4424 149.404 95.534C149.129 95.6713 148.855 95.7171 148.534 95.7171ZM148.809 94.8016C149.083 94.8016 149.358 94.7558 149.587 94.6185C149.816 94.5269 149.953 94.3438 150.09 94.1149C150.182 93.9319 150.274 93.703 150.274 93.4741V92.7417C150.228 92.7875 150.136 92.8333 150.045 92.8333C149.907 92.879 149.77 92.879 149.678 92.9248L149.267 92.9706L148.9 93.0164C148.717 93.0621 148.488 93.1079 148.305 93.1537C148.122 93.1995 147.985 93.291 147.893 93.4283C147.619 93.7945 147.71 94.2523 148.031 94.5269C148.259 94.7558 148.534 94.8016 148.809 94.8016Z" fill="#141E64"></path>
      <path d="M155.126 95.7171C154.622 95.7171 154.119 95.5797 153.707 95.3509C153.295 95.0762 152.974 94.71 152.791 94.298C152.379 93.3368 152.379 92.1924 152.791 91.2311C152.974 90.8192 153.295 90.453 153.707 90.1783C154.119 89.9037 154.622 89.8121 155.126 89.8121C155.538 89.8121 155.904 89.9037 156.316 90.041C156.636 90.1783 156.911 90.4072 157.14 90.7276C157.369 91.048 157.46 91.3685 157.506 91.7347H156.407C156.362 91.46 156.224 91.2311 155.995 91.048C155.767 90.865 155.446 90.7276 155.126 90.7734C154.851 90.7734 154.531 90.865 154.302 91.0023C154.073 91.1854 153.89 91.4142 153.752 91.6889C153.615 92.0093 153.569 92.3755 153.569 92.7417C153.569 93.1079 153.615 93.4741 153.752 93.8403C153.844 94.115 154.027 94.3896 154.302 94.5727C154.531 94.7558 154.851 94.8473 155.126 94.8016C155.4 94.8016 155.721 94.71 155.95 94.5269C156.178 94.3438 156.362 94.0692 156.407 93.7945H157.506C157.46 94.1607 157.369 94.4811 157.14 94.8016C156.957 95.0762 156.636 95.3509 156.316 95.4882C155.95 95.6255 155.538 95.7171 155.126 95.7171Z" fill="#141E64"></path>
      <path d="M159.657 92.1924V95.5797H158.513V87.9354H159.612V90.7734H159.657C159.795 90.453 160.024 90.2241 160.298 90.041C160.619 89.8579 160.985 89.7663 161.397 89.7663C161.763 89.7663 162.129 89.8579 162.45 89.9952C162.724 90.1783 162.999 90.4072 163.136 90.7276C163.319 91.0938 163.411 91.5058 163.365 91.9178V95.5797H162.267V92.0551C162.312 91.6889 162.175 91.3685 161.946 91.0938C161.717 90.8649 161.351 90.7276 161.031 90.7276C160.802 90.7276 160.527 90.7734 160.298 90.9107C160.069 91.0023 159.932 91.1854 159.795 91.4142C159.703 91.6431 159.657 91.9178 159.657 92.1924Z" fill="#141E64"></path>
      <path d="M175.77 95.7171C175.267 95.7171 174.809 95.5797 174.351 95.3509C173.939 95.0762 173.619 94.7558 173.436 94.298C172.978 93.291 172.978 92.1924 173.436 91.1854C173.619 90.7734 173.939 90.4072 174.351 90.1326C175.221 89.629 176.274 89.629 177.189 90.1326C177.601 90.3614 177.921 90.7276 178.15 91.1854C178.608 92.1924 178.608 93.291 178.15 94.298C177.921 94.71 177.601 95.0762 177.189 95.3509C176.777 95.5797 176.274 95.7171 175.77 95.7171ZM175.77 94.7558C176.09 94.7558 176.411 94.6642 176.64 94.4811C176.869 94.298 177.052 94.0234 177.143 93.7488C177.372 93.1079 177.372 92.3755 177.143 91.7347C177.052 91.46 176.869 91.1854 176.64 91.0023C176.136 90.6361 175.404 90.6361 174.9 91.0023C174.671 91.1854 174.488 91.46 174.397 91.7347C174.168 92.3755 174.168 93.1079 174.397 93.7488C174.488 94.0234 174.671 94.298 174.9 94.4811C175.175 94.6642 175.495 94.7558 175.77 94.7558Z" fill="#141E64"></path>
      <path d="M179.569 95.5797V89.8579H180.668V90.7734H180.714C180.805 90.453 180.988 90.2241 181.263 90.041C181.538 89.8579 181.858 89.7664 182.178 89.7664H182.453C182.545 89.7664 182.59 89.7664 182.682 89.7664V90.8192C182.59 90.8192 182.545 90.7734 182.453 90.7734C182.362 90.7734 182.224 90.7734 182.087 90.7734C181.858 90.7734 181.583 90.8192 181.4 90.9565C180.988 91.1854 180.714 91.5973 180.714 92.1009V95.6255H179.569V95.5797Z" fill="#141E64"></path>
      <path d="M186.802 87.9354L188.907 94.1607H188.999L191.15 87.9354H192.386L189.64 95.5797H188.312L185.566 87.9354H186.802Z" fill="#141E64"></path>
      <path d="M193.943 88.9424C193.76 88.9424 193.576 88.8967 193.439 88.7593C193.302 88.622 193.256 88.4847 193.256 88.3016C193.256 88.1185 193.348 87.9812 193.439 87.8438C193.576 87.7065 193.76 87.6607 193.943 87.6607C194.126 87.6607 194.309 87.7065 194.446 87.8438C194.583 87.9812 194.675 88.1185 194.675 88.3016C194.675 88.4847 194.583 88.622 194.446 88.7593C194.309 88.8967 194.171 88.9424 193.943 88.9424ZM193.393 95.5798V89.8579H194.492V95.6255H193.393V95.5798Z" fill="#141E64"></path>
      <path d="M198.337 95.7171C197.833 95.7171 197.33 95.6255 196.872 95.3509C196.46 95.122 196.14 94.7558 195.911 94.3438C195.453 93.3368 195.453 92.2382 195.911 91.2311C196.323 90.3157 197.238 89.7664 198.245 89.8121C198.566 89.8121 198.886 89.8579 199.207 89.9952C199.527 90.0868 199.802 90.2699 200.031 90.4988C200.305 90.7734 200.488 91.048 200.58 91.4142C200.717 91.8262 200.809 92.284 200.763 92.7417V93.1537H196.186V92.3297H199.664C199.664 92.0551 199.619 91.7804 199.481 91.5516C199.344 91.3227 199.207 91.1396 198.978 91.0023C198.749 90.8649 198.474 90.7734 198.245 90.8192C197.971 90.8192 197.65 90.9107 197.421 91.048C197.193 91.1854 197.009 91.4142 196.872 91.6431C196.735 91.872 196.689 92.1466 196.689 92.4671V93.1079C196.689 93.4283 196.735 93.7945 196.872 94.0692C197.009 94.3438 197.193 94.5269 197.421 94.6642C197.879 94.8931 198.383 94.9389 198.84 94.8016C199.024 94.7558 199.161 94.6642 199.298 94.5269C199.436 94.3896 199.527 94.2523 199.573 94.0692L200.626 94.2523C200.534 94.5727 200.397 94.8473 200.168 95.0762C199.939 95.3051 199.664 95.4882 199.344 95.6255C199.069 95.6255 198.703 95.7171 198.337 95.7171Z" fill="#141E64"></path>
      <path d="M204.425 89.8579V90.7734H201.267V89.8579H204.425ZM202.136 88.4847H203.235V93.9319C203.235 94.115 203.235 94.2523 203.326 94.4354C203.372 94.5269 203.464 94.6185 203.601 94.6643C203.693 94.71 203.83 94.71 203.921 94.71C204.013 94.71 204.059 94.71 204.15 94.71L204.288 94.6643L204.471 95.5798C204.379 95.6255 204.288 95.6255 204.196 95.6713C204.059 95.7171 203.876 95.7171 203.738 95.7171C203.464 95.7171 203.189 95.6713 202.914 95.5798C202.686 95.4882 202.457 95.3051 202.319 95.0762C202.136 94.8016 202.09 94.5269 202.09 94.2065L202.136 88.4847Z" fill="#141E64"></path>
      <path d="M214.495 87.9354V95.5797H213.443L209.552 89.9494H209.46V95.5797H208.362V87.9354H209.414L213.305 93.5656H213.397V87.9354H214.495Z" fill="#141E64"></path>
      <path d="M217.654 95.7171C217.333 95.7171 216.967 95.6713 216.693 95.534C216.418 95.3966 216.143 95.2135 216.006 94.9389C215.777 94.6185 215.686 94.298 215.686 93.9776C215.686 93.703 215.731 93.4283 215.869 93.1537C216.006 92.9706 216.143 92.7875 216.372 92.6502C216.601 92.5128 216.83 92.4213 217.105 92.3755C217.379 92.3297 217.654 92.284 217.883 92.2382L218.707 92.1466C218.89 92.1466 219.027 92.1009 219.164 92.0093C219.256 91.9635 219.302 91.8262 219.302 91.7347V91.6889C219.302 91.4142 219.21 91.1396 219.027 90.9107C218.798 90.7276 218.524 90.6361 218.203 90.6361C217.883 90.6361 217.562 90.7276 217.333 90.9107C217.15 91.048 216.967 91.2311 216.876 91.46L215.823 91.2311C215.914 90.9107 216.098 90.6361 216.372 90.3614C216.601 90.1326 216.921 89.9952 217.196 89.9037C217.517 89.8121 217.837 89.7664 218.203 89.7664C218.432 89.7664 218.707 89.8121 218.936 89.8579C219.21 89.9037 219.439 89.9952 219.668 90.1326C219.897 90.2699 220.08 90.4988 220.217 90.7276C220.355 91.048 220.446 91.4142 220.446 91.7347V95.534H219.348V94.7558H219.302C219.21 94.8931 219.119 95.0762 218.981 95.1678C218.798 95.3051 218.615 95.4424 218.432 95.534C218.203 95.6713 217.929 95.7171 217.654 95.7171ZM217.883 94.8016C218.157 94.8016 218.432 94.7558 218.661 94.6185C219.073 94.3896 219.348 93.9776 219.348 93.5199V92.7875C219.302 92.8333 219.21 92.879 219.119 92.879C218.981 92.879 218.89 92.9248 218.752 92.9248L218.34 92.9706L217.974 93.0621C217.791 93.1079 217.562 93.1537 217.379 93.1995C217.196 93.2452 217.059 93.3368 216.967 93.4741C216.693 93.8403 216.784 94.298 217.105 94.5727C217.333 94.7558 217.608 94.8016 217.883 94.8016Z" fill="#141E64"></path>
      <path d="M221.819 95.5797V89.8579H222.918V90.7734H222.964C223.055 90.453 223.284 90.2241 223.559 90.041C223.833 89.8579 224.2 89.7664 224.52 89.7664C224.84 89.7664 225.207 89.8579 225.481 90.041C225.756 90.2241 225.939 90.4988 226.076 90.7734H226.122C226.259 90.453 226.488 90.2241 226.763 90.041C227.083 89.8579 227.45 89.7664 227.816 89.7664C228.274 89.7664 228.731 89.9037 229.098 90.2699C229.464 90.6819 229.647 91.1854 229.601 91.7347V95.5797H228.502V91.8262C228.548 91.5058 228.411 91.1854 228.182 91.0023C227.953 90.8192 227.678 90.7276 227.404 90.7276C227.083 90.7276 226.763 90.8192 226.534 91.048C226.305 91.2769 226.214 91.5973 226.214 91.9178V95.5797H225.115V91.7804C225.115 91.5058 225.024 91.2311 224.84 91.048C224.657 90.865 224.383 90.7734 224.062 90.7734C223.833 90.7734 223.65 90.8192 223.467 90.9565C223.284 91.048 223.147 91.2311 223.055 91.4142C222.964 91.6431 222.872 91.872 222.872 92.1009V95.6255L221.819 95.5797Z" fill="#141E64"></path>
      <path d="M168.034 95.5797V87.8896H172.795V88.8966H169.178V91.2311H172.428V92.2382H169.178V95.5797H168.034Z" fill="#141E64"></path>
      <path d="M127.936 78.872L121.619 60.0586L122.351 60.6537L119.605 60.0586V58.5023L127.615 58.365V59.9213L124.548 60.6079L124.914 59.8297L129.995 76.2628H129.538L135.031 60.0128L135.305 60.6079L132.33 60.0586V58.5023L139.837 58.365V59.9213L137.045 60.5621L137.777 60.0128L131.14 78.872H127.936Z" fill="#141E64"></path>
      <path d="M145.788 77.0868L145.513 76.7206L147.985 77.3157V78.872H140.707V77.3157L143.178 76.7206L142.904 77.0868V65.2769L143.178 65.5516L140.752 65.0023V63.4459L145.833 63.2628L145.788 77.0868ZM144.14 60.379C143.636 60.379 143.178 60.1959 142.858 59.8755C142.492 59.5093 142.309 59.0058 142.355 58.4565C142.309 57.9072 142.492 57.4037 142.904 57.0375C143.59 56.3051 144.735 56.2593 145.513 56.9459C145.925 57.3121 146.154 57.9072 146.108 58.4565C146.154 59.0058 145.925 59.5093 145.559 59.8755C145.101 60.1959 144.643 60.379 144.14 60.379Z" fill="#141E64"></path>
      <path d="M155.721 79.1466C154.485 79.1466 153.249 78.872 152.15 78.2311C151.097 77.5903 150.274 76.6748 149.77 75.5762C149.175 74.2487 148.855 72.784 148.9 71.3192C148.855 69.8086 149.175 68.298 149.77 66.879C150.319 65.6889 151.189 64.6818 152.333 63.9952C153.524 63.3086 154.851 62.9424 156.224 62.9882C157.46 62.9424 158.65 63.2628 159.703 63.8579C160.619 64.453 161.305 65.2769 161.717 66.284C162.175 67.3825 162.404 68.5727 162.358 69.7628C162.358 70.0375 162.358 70.2664 162.312 70.541C162.267 70.8156 162.267 71.0903 162.221 71.4107H151.143V69.4424H159.612L159.337 69.6255C159.383 68.8931 159.245 68.1607 159.062 67.4283C158.879 66.7875 158.513 66.2382 157.964 65.8262C157.369 65.4142 156.682 65.1854 155.95 65.2311C155.126 65.1854 154.302 65.46 153.661 65.9635C153.02 66.5128 152.562 67.1995 152.288 67.9776C151.967 68.9389 151.83 69.9459 151.83 70.953C151.83 72.0058 151.967 73.0586 152.333 74.0656C152.608 74.8896 153.157 75.622 153.844 76.1255C154.576 76.629 155.446 76.9037 156.362 76.8579C157.14 76.8579 157.918 76.7206 158.65 76.4459C159.566 76.1255 160.39 75.7135 161.214 75.21L162.221 76.8121C161.214 77.5445 160.069 78.0938 158.879 78.5058C157.872 78.9178 156.819 79.1466 155.721 79.1466ZM152.883 60.5621L151.876 59.4178L155.034 56.4424L156.728 56.3051L160.115 59.4178L159.062 60.5621L154.943 57.8614L156.957 57.9072L152.883 60.5621Z" fill="#141E64"></path>
      <path d="M156.087 83.9987C155.629 83.9987 155.217 83.8614 154.897 83.541C154.576 83.2206 154.393 82.7628 154.439 82.2593C154.393 81.8016 154.576 81.3438 154.897 80.9776C155.583 80.3825 156.59 80.3825 157.277 80.9776C157.598 81.298 157.781 81.8016 157.735 82.2593C157.781 82.7171 157.598 83.2206 157.231 83.541C156.957 83.8614 156.499 83.9987 156.087 83.9987Z" fill="#141E64"></path>
      <path d="M169.27 79.1467C168.263 79.1924 167.302 78.8262 166.661 78.0938C166.066 77.4072 165.745 76.3544 165.745 74.9812V64.9107L166.157 65.3227H163.228V63.7206L166.203 63.1713L165.745 63.7206V59.8298L168.675 59.3262V63.7206L168.309 63.2629H172.84L172.749 65.2312H168.309L168.675 64.8192V74.4776C168.629 75.1185 168.767 75.7593 169.133 76.2629C169.453 76.6291 169.957 76.8579 170.46 76.8121C170.826 76.8121 171.193 76.7664 171.559 76.6291C172.017 76.4917 172.428 76.3544 172.886 76.1255L173.481 77.7734C172.154 78.6431 170.735 79.1009 169.27 79.1467Z" fill="#141E64"></path>
      <path d="M194.171 58.5023L201.495 58.365V59.9213L198.612 60.6537L199.069 60.0128V78.872H195.682L185.245 61.5234H185.703V77.2699L185.2 76.629L188.083 77.3157V78.872H180.759V77.3157L183.643 76.629L183.186 77.2699V59.9671L183.552 60.5621L180.805 60.0128V58.4565L186.802 58.3192L197.101 75.3474L196.643 75.3931V59.9671L197.147 60.5621L194.171 60.0586V58.5023Z" fill="#141E64"></path>
      <path d="M214.495 77.2699L214.038 76.6748L216.693 77.2699V78.8262L212.252 79.0093L211.84 76.2171L212.069 76.3086C211.291 77.2241 210.376 77.9107 209.323 78.46C208.453 78.9178 207.446 79.1466 206.485 79.1466C205.386 79.1466 204.379 78.7804 203.555 78.048C202.731 77.3157 202.319 76.1713 202.319 74.7065C202.274 73.7452 202.502 72.8297 203.052 72.0516C203.555 71.4107 204.288 70.9072 205.112 70.6783C206.119 70.4037 207.171 70.2664 208.224 70.2664H211.795L211.52 70.5868V68.0692C211.52 67.0621 211.245 66.3297 210.742 65.872C210.101 65.4142 209.323 65.1854 208.545 65.2311C208.041 65.2311 207.492 65.2769 206.988 65.3685C206.393 65.46 205.798 65.6431 205.249 65.8262L205.661 65.4142L205.34 68.0234H203.418L203.189 64.1326C204.288 63.8121 205.386 63.4917 206.485 63.3086C207.4 63.1255 208.362 63.034 209.277 63.034C210.925 63.034 212.207 63.4002 213.122 64.1326C214.038 64.865 214.495 66.0093 214.495 67.5657V77.2699ZM205.34 74.4776C205.295 75.1642 205.524 75.8051 205.936 76.3544C206.348 76.7664 206.897 76.9952 207.492 76.9495C208.224 76.9037 208.911 76.7206 209.552 76.3544C210.33 75.9424 211.062 75.3931 211.749 74.7523L211.566 75.4847V71.8685L211.84 72.1431H208.728C207.446 72.1431 206.531 72.3262 206.073 72.7382C205.569 73.1502 205.295 73.8368 205.34 74.4776Z" fill="#141E64"></path>
      <path d="M232.943 65.9178L232.531 66.0093C233.4 65.0938 234.407 64.3157 235.552 63.7664C236.513 63.3086 237.52 63.034 238.573 63.034C239.717 62.9882 240.77 63.4459 241.594 64.2241C242.418 65.048 242.83 66.2382 242.83 67.8861V77.1783L242.509 76.7206L244.89 77.3157V78.872H237.886V77.3157L240.267 76.7206L239.9 77.2241V68.5727C239.9 67.4283 239.671 66.6044 239.214 66.1009C238.756 65.5973 238.069 65.2769 237.383 65.3227C236.65 65.3685 235.918 65.5516 235.277 65.872C234.407 66.3297 233.629 66.879 232.988 67.6114L233.217 66.9248C233.217 67.1079 233.263 67.2452 233.263 67.4283C233.263 67.6114 233.263 67.703 233.263 67.8403V77.2241L232.943 76.7664L235.231 77.3614V78.9178H228.365V77.3614L230.745 76.7664L230.379 77.2699V68.5727C230.379 67.4283 230.15 66.6044 229.647 66.1009C229.189 65.5973 228.502 65.2769 227.816 65.3227C227.083 65.3685 226.351 65.5516 225.71 65.872C224.886 66.284 224.108 66.8333 223.467 67.5199L223.696 67.0164V77.2241L223.376 76.7664L225.71 77.3157V78.872H218.478V77.3157L221.041 76.7206L220.629 77.2241V65.048L221.041 65.5516L218.478 64.9107V63.3544L222.918 63.1713L223.284 66.0093L222.964 65.9178C223.833 65.0023 224.84 64.2699 225.985 63.7664C226.946 63.3086 227.953 63.0797 229.006 63.0797C229.876 63.0797 230.7 63.3086 231.432 63.7664C232.164 64.2699 232.714 65.0023 232.943 65.9178Z" fill="#141E64"></path>
    </g>
  </g>
  <defs>
    <clipPath id="clip0_55_131">
      <rect width="272.405" height="130" fill="white"></rect>
    </clipPath>
    <clipPath id="clip1_55_131">
      <rect width="180.215" height="116.085" fill="white" transform="translate(92.1398 6.96002)"></rect>
    </clipPath>
  </defs>
</svg>
